<?xml version="1.0" encoding="UTF-8" standalone="no"?>
<!DOCTYPE svg PUBLIC "-//W3C//DTD SVG 1.1//EN"
 "http://www.w3.org/Graphics/SVG/1.1/DTD/svg11.dtd">
<!-- Generated by graphviz version 2.42.4 (0)
 -->
<!-- Pages: 1 -->
<svg width="10206pt" height="332pt"
 viewBox="0.00 0.00 10205.50 332.00" xmlns="http://www.w3.org/2000/svg" xmlns:xlink="http://www.w3.org/1999/xlink">
<g id="graph0" class="graph" transform="scale(1 1) rotate(0) translate(4 328)">
<polygon fill="white" stroke="transparent" points="-4,4 -4,-328 10201.5,-328 10201.5,4 -4,4"/>
<!-- SPDXRef&#45;DOCUMENT -->
<g id="node1" class="node">
<title>SPDXRef&#45;DOCUMENT</title>
<ellipse fill="none" stroke="#ee6363" cx="5115.5" cy="-306" rx="109.5" ry="18"/>
<text text-anchor="middle" x="5115.5" y="-302.3" font-family="Times,serif" font-size="14.00">SPDXRef&#45;DOCUMENT</text>
</g>
<!-- SPDXRef&#45;DOCUMENT_DESCRIBES -->
<!-- None -->
<g id="node2" class="node">
<title>SPDXRef&#45;DOCUMENT_DESCRIBES</title>
<ellipse fill="none" stroke="lightgreen" cx="5115.5" cy="-234" rx="64.5" ry="18"/>
<text text-anchor="middle" x="5115.5" y="-230.3" font-family="Times,serif" font-size="14.00">DESCRIBES</text>
</g>
<!-- SPDXRef&#45;DOCUMENT&#45;&gt;SPDXRef&#45;DOCUMENT_DESCRIBES -->
<g id="edge1" class="edge">
<title>SPDXRef&#45;DOCUMENT&#45;&gt;SPDXRef&#45;DOCUMENT_DESCRIBES</title>
<path fill="none" stroke="black" d="M5115.5,-287.7C5115.5,-279.98 5115.5,-270.71 5115.5,-262.11"/>
<polygon fill="black" stroke="black" points="5119,-262.1 5115.5,-252.1 5112,-262.1 5119,-262.1"/>
</g>
<!-- SPDXRef&#45;com.github.rikosintie&#45;Discovery -->
<g id="node3" class="node">
<title>SPDXRef&#45;com.github.rikosintie&#45;Discovery</title>
<ellipse fill="none" stroke="lightskyblue" cx="5115.5" cy="-162" rx="180.5" ry="18"/>
<text text-anchor="middle" x="5115.5" y="-158.3" font-family="Times,serif" font-size="14.00">SPDXRef&#45;com.github.rikosintie&#45;Discovery</text>
</g>
<!-- SPDXRef&#45;DOCUMENT_DESCRIBES&#45;&gt;SPDXRef&#45;com.github.rikosintie&#45;Discovery -->
<g id="edge48" class="edge">
<title>SPDXRef&#45;DOCUMENT_DESCRIBES&#45;&gt;SPDXRef&#45;com.github.rikosintie&#45;Discovery</title>
<path fill="none" stroke="black" d="M5115.5,-215.7C5115.5,-207.98 5115.5,-198.71 5115.5,-190.11"/>
<polygon fill="black" stroke="black" points="5119,-190.1 5115.5,-180.1 5112,-190.1 5119,-190.1"/>
</g>
<!-- SPDXRef&#45;com.github.rikosintie&#45;Discovery_DEPENDS_ON -->
<!-- None -->
<g id="node4" class="node">
<title>SPDXRef&#45;com.github.rikosintie&#45;Discovery_DEPENDS_ON</title>
<ellipse fill="none" stroke="lightgreen" cx="5115.5" cy="-90" rx="75.5" ry="18"/>
<text text-anchor="middle" x="5115.5" y="-86.3" font-family="Times,serif" font-size="14.00">DEPENDS_ON</text>
</g>
<!-- SPDXRef&#45;com.github.rikosintie&#45;Discovery&#45;&gt;SPDXRef&#45;com.github.rikosintie&#45;Discovery_DEPENDS_ON -->
<g id="edge2" class="edge">
<title>SPDXRef&#45;com.github.rikosintie&#45;Discovery&#45;&gt;SPDXRef&#45;com.github.rikosintie&#45;Discovery_DEPENDS_ON</title>
<path fill="none" stroke="black" d="M5115.5,-143.7C5115.5,-135.98 5115.5,-126.71 5115.5,-118.11"/>
<polygon fill="black" stroke="black" points="5119,-118.1 5115.5,-108.1 5112,-118.1 5119,-118.1"/>
</g>
<!-- SPDXRef&#45;pip&#45;ast&#45;serialize -->
<g id="node5" class="node">
<title>SPDXRef&#45;pip&#45;ast&#45;serialize</title>
<ellipse fill="none" stroke="lightskyblue" cx="113.5" cy="-18" rx="113.5" ry="18"/>
<text text-anchor="middle" x="113.5" y="-14.3" font-family="Times,serif" font-size="14.00">SPDXRef&#45;pip&#45;ast&#45;serialize</text>
</g>
<!-- SPDXRef&#45;com.github.rikosintie&#45;Discovery_DEPENDS_ON&#45;&gt;SPDXRef&#45;pip&#45;ast&#45;serialize -->
<g id="edge3" class="edge">
<title>SPDXRef&#45;com.github.rikosintie&#45;Discovery_DEPENDS_ON&#45;&gt;SPDXRef&#45;pip&#45;ast&#45;serialize</title>
<path fill="none" stroke="black" d="M5039.94,-88.76C4460.81,-86.82 734.92,-73 236.5,-36 224.91,-35.14 212.75,-33.89 200.77,-32.45"/>
<polygon fill="black" stroke="black" points="201.12,-28.96 190.77,-31.2 200.25,-35.91 201.12,-28.96"/>
</g>
<!-- SPDXRef&#45;pip&#45;asttokens -->
<g id="node6" class="node">
<title>SPDXRef&#45;pip&#45;asttokens</title>
<ellipse fill="none" stroke="lightskyblue" cx="350.5" cy="-18" rx="105" ry="18"/>
<text text-anchor="middle" x="350.5" y="-14.3" font-family="Times,serif" font-size="14.00">SPDXRef&#45;pip&#45;asttokens</text>
</g>
<!-- SPDXRef&#45;com.github.rikosintie&#45;Discovery_DEPENDS_ON&#45;&gt;SPDXRef&#45;pip&#45;asttokens -->
<g id="edge4" class="edge">
<title>SPDXRef&#45;com.github.rikosintie&#45;Discovery_DEPENDS_ON&#45;&gt;SPDXRef&#45;pip&#45;asttokens</title>
<path fill="none" stroke="black" d="M5039.92,-88.76C4476.34,-86.91 938.42,-73.86 464.5,-36 453.96,-35.16 442.92,-33.94 432.03,-32.54"/>
<polygon fill="black" stroke="black" points="432.46,-29.06 422.09,-31.2 431.53,-36 432.46,-29.06"/>
</g>
<!-- SPDXRef&#45;pip&#45;bcrypt -->
<g id="node7" class="node">
<title>SPDXRef&#45;pip&#45;bcrypt</title>
<ellipse fill="none" stroke="lightskyblue" cx="568.5" cy="-18" rx="94.5" ry="18"/>
<text text-anchor="middle" x="568.5" y="-14.3" font-family="Times,serif" font-size="14.00">SPDXRef&#45;pip&#45;bcrypt</text>
</g>
<!-- SPDXRef&#45;com.github.rikosintie&#45;Discovery_DEPENDS_ON&#45;&gt;SPDXRef&#45;pip&#45;bcrypt -->
<g id="edge5" class="edge">
<title>SPDXRef&#45;com.github.rikosintie&#45;Discovery_DEPENDS_ON&#45;&gt;SPDXRef&#45;pip&#45;bcrypt</title>
<path fill="none" stroke="black" d="M5039.81,-88.79C4490.39,-87.18 1123.06,-75.73 671.5,-36 662.35,-35.2 652.79,-34.04 643.34,-32.71"/>
<polygon fill="black" stroke="black" points="643.55,-29.21 633.14,-31.21 642.53,-36.13 643.55,-29.21"/>
</g>
<!-- SPDXRef&#45;pip&#45;certifi -->
<g id="node8" class="node">
<title>SPDXRef&#45;pip&#45;certifi</title>
<ellipse fill="none" stroke="lightskyblue" cx="772.5" cy="-18" rx="91.5" ry="18"/>
<text text-anchor="middle" x="772.5" y="-14.3" font-family="Times,serif" font-size="14.00">SPDXRef&#45;pip&#45;certifi</text>
</g>
<!-- SPDXRef&#45;com.github.rikosintie&#45;Discovery_DEPENDS_ON&#45;&gt;SPDXRef&#45;pip&#45;certifi -->
<g id="edge6" class="edge">
<title>SPDXRef&#45;com.github.rikosintie&#45;Discovery_DEPENDS_ON&#45;&gt;SPDXRef&#45;pip&#45;certifi</title>
<path fill="none" stroke="black" d="M5039.86,-88.76C4505.13,-86.96 1303.55,-74.65 873.5,-36 864.4,-35.18 854.88,-34.01 845.47,-32.65"/>
<polygon fill="black" stroke="black" points="845.75,-29.15 835.34,-31.12 844.71,-36.07 845.75,-29.15"/>
</g>
<!-- SPDXRef&#45;pip&#45;cffi -->
<g id="node9" class="node">
<title>SPDXRef&#45;pip&#45;cffi</title>
<ellipse fill="none" stroke="lightskyblue" cx="964.5" cy="-18" rx="82" ry="18"/>
<text text-anchor="middle" x="964.5" y="-14.3" font-family="Times,serif" font-size="14.00">SPDXRef&#45;pip&#45;cffi</text>
</g>
<!-- SPDXRef&#45;com.github.rikosintie&#45;Discovery_DEPENDS_ON&#45;&gt;SPDXRef&#45;pip&#45;cffi -->
<g id="edge7" class="edge">
<title>SPDXRef&#45;com.github.rikosintie&#45;Discovery_DEPENDS_ON&#45;&gt;SPDXRef&#45;pip&#45;cffi</title>
<path fill="none" stroke="black" d="M5039.79,-88.79C4518.2,-87.28 1465.87,-76.71 1055.5,-36 1047.54,-35.21 1039.24,-34.09 1031.02,-32.79"/>
<polygon fill="black" stroke="black" points="1031.52,-29.32 1021.08,-31.12 1030.37,-36.22 1031.52,-29.32"/>
</g>
<!-- SPDXRef&#45;pip&#45;charset&#45;normalizer -->
<g id="node10" class="node">
<title>SPDXRef&#45;pip&#45;charset&#45;normalizer</title>
<ellipse fill="none" stroke="lightskyblue" cx="1205.5" cy="-18" rx="140.5" ry="18"/>
<text text-anchor="middle" x="1205.5" y="-14.3" font-family="Times,serif" font-size="14.00">SPDXRef&#45;pip&#45;charset&#45;normalizer</text>
</g>
<!-- SPDXRef&#45;com.github.rikosintie&#45;Discovery_DEPENDS_ON&#45;&gt;SPDXRef&#45;pip&#45;charset&#45;normalizer -->
<g id="edge8" class="edge">
<title>SPDXRef&#45;com.github.rikosintie&#45;Discovery_DEPENDS_ON&#45;&gt;SPDXRef&#45;pip&#45;charset&#45;normalizer</title>
<path fill="none" stroke="black" d="M5039.88,-88.95C4575.93,-88.52 2109.85,-83.95 1355.5,-36 1341.16,-35.09 1326.07,-33.79 1311.23,-32.3"/>
<polygon fill="black" stroke="black" points="1311.3,-28.79 1301,-31.25 1310.59,-35.76 1311.3,-28.79"/>
</g>
<!-- SPDXRef&#45;pip&#45;colorama -->
<g id="node11" class="node">
<title>SPDXRef&#45;pip&#45;colorama</title>
<ellipse fill="none" stroke="lightskyblue" cx="1469.5" cy="-18" rx="105" ry="18"/>
<text text-anchor="middle" x="1469.5" y="-14.3" font-family="Times,serif" font-size="14.00">SPDXRef&#45;pip&#45;colorama</text>
</g>
<!-- SPDXRef&#45;com.github.rikosintie&#45;Discovery_DEPENDS_ON&#45;&gt;SPDXRef&#45;pip&#45;colorama -->
<g id="edge9" class="edge">
<title>SPDXRef&#45;com.github.rikosintie&#45;Discovery_DEPENDS_ON&#45;&gt;SPDXRef&#45;pip&#45;colorama</title>
<path fill="none" stroke="black" d="M5039.78,-89.24C4592.23,-90.43 2288.7,-93.61 1583.5,-36 1573.15,-35.15 1562.31,-33.95 1551.6,-32.57"/>
<polygon fill="black" stroke="black" points="1551.77,-29.07 1541.4,-31.2 1550.84,-36 1551.77,-29.07"/>
</g>
<!-- SPDXRef&#45;pip&#45;cryptography -->
<g id="node12" class="node">
<title>SPDXRef&#45;pip&#45;cryptography</title>
<ellipse fill="none" stroke="lightskyblue" cx="1714.5" cy="-18" rx="122" ry="18"/>
<text text-anchor="middle" x="1714.5" y="-14.3" font-family="Times,serif" font-size="14.00">SPDXRef&#45;pip&#45;cryptography</text>
</g>
<!-- SPDXRef&#45;com.github.rikosintie&#45;Discovery_DEPENDS_ON&#45;&gt;SPDXRef&#45;pip&#45;cryptography -->
<g id="edge10" class="edge">
<title>SPDXRef&#45;com.github.rikosintie&#45;Discovery_DEPENDS_ON&#45;&gt;SPDXRef&#45;pip&#45;cryptography</title>
<path fill="none" stroke="black" d="M5039.93,-88.94C4612.68,-88.39 2496.02,-83.33 1845.5,-36 1833.23,-35.11 1820.34,-33.84 1807.65,-32.4"/>
<polygon fill="black" stroke="black" points="1807.86,-28.9 1797.52,-31.21 1807.04,-35.85 1807.86,-28.9"/>
</g>
<!-- SPDXRef&#45;pip&#45;dnspython -->
<g id="node13" class="node">
<title>SPDXRef&#45;pip&#45;dnspython</title>
<ellipse fill="none" stroke="lightskyblue" cx="1965.5" cy="-18" rx="111" ry="18"/>
<text text-anchor="middle" x="1965.5" y="-14.3" font-family="Times,serif" font-size="14.00">SPDXRef&#45;pip&#45;dnspython</text>
</g>
<!-- SPDXRef&#45;com.github.rikosintie&#45;Discovery_DEPENDS_ON&#45;&gt;SPDXRef&#45;pip&#45;dnspython -->
<g id="edge11" class="edge">
<title>SPDXRef&#45;com.github.rikosintie&#45;Discovery_DEPENDS_ON&#45;&gt;SPDXRef&#45;pip&#45;dnspython</title>
<path fill="none" stroke="black" d="M5039.87,-88.94C4631.42,-88.44 2685.21,-83.54 2085.5,-36 2074.39,-35.12 2062.73,-33.87 2051.24,-32.45"/>
<polygon fill="black" stroke="black" points="2051.56,-28.97 2041.2,-31.17 2050.67,-35.91 2051.56,-28.97"/>
</g>
<!-- SPDXRef&#45;pip&#45;et&#45;xmlfile -->
<g id="node14" class="node">
<title>SPDXRef&#45;pip&#45;et&#45;xmlfile</title>
<ellipse fill="none" stroke="lightskyblue" cx="2201.5" cy="-18" rx="106.5" ry="18"/>
<text text-anchor="middle" x="2201.5" y="-14.3" font-family="Times,serif" font-size="14.00">SPDXRef&#45;pip&#45;et&#45;xmlfile</text>
</g>
<!-- SPDXRef&#45;com.github.rikosintie&#45;Discovery_DEPENDS_ON&#45;&gt;SPDXRef&#45;pip&#45;et&#45;xmlfile -->
<g id="edge12" class="edge">
<title>SPDXRef&#45;com.github.rikosintie&#45;Discovery_DEPENDS_ON&#45;&gt;SPDXRef&#45;pip&#45;et&#45;xmlfile</title>
<path fill="none" stroke="black" d="M5039.96,-88.88C4650.63,-88.05 2867.61,-81.76 2316.5,-36 2306.14,-35.14 2295.28,-33.94 2284.56,-32.56"/>
<polygon fill="black" stroke="black" points="2284.72,-29.05 2274.34,-31.2 2283.79,-35.99 2284.72,-29.05"/>
</g>
<!-- SPDXRef&#45;pip&#45;executing -->
<g id="node15" class="node">
<title>SPDXRef&#45;pip&#45;executing</title>
<ellipse fill="none" stroke="lightskyblue" cx="2432.5" cy="-18" rx="107" ry="18"/>
<text text-anchor="middle" x="2432.5" y="-14.3" font-family="Times,serif" font-size="14.00">SPDXRef&#45;pip&#45;executing</text>
</g>
<!-- SPDXRef&#45;com.github.rikosintie&#45;Discovery_DEPENDS_ON&#45;&gt;SPDXRef&#45;pip&#45;executing -->
<g id="edge13" class="edge">
<title>SPDXRef&#45;com.github.rikosintie&#45;Discovery_DEPENDS_ON&#45;&gt;SPDXRef&#45;pip&#45;executing</title>
<path fill="none" stroke="black" d="M5039.88,-88.73C4670.16,-87.2 3050.19,-78.17 2547.5,-36 2537.21,-35.14 2526.44,-33.94 2515.8,-32.58"/>
<polygon fill="black" stroke="black" points="2516.02,-29.08 2505.65,-31.23 2515.1,-36.02 2516.02,-29.08"/>
</g>
<!-- SPDXRef&#45;pip&#45;future -->
<g id="node16" class="node">
<title>SPDXRef&#45;pip&#45;future</title>
<ellipse fill="none" stroke="lightskyblue" cx="2649.5" cy="-18" rx="92.5" ry="18"/>
<text text-anchor="middle" x="2649.5" y="-14.3" font-family="Times,serif" font-size="14.00">SPDXRef&#45;pip&#45;future</text>
</g>
<!-- SPDXRef&#45;com.github.rikosintie&#45;Discovery_DEPENDS_ON&#45;&gt;SPDXRef&#45;pip&#45;future -->
<g id="edge14" class="edge">
<title>SPDXRef&#45;com.github.rikosintie&#45;Discovery_DEPENDS_ON&#45;&gt;SPDXRef&#45;pip&#45;future</title>
<path fill="none" stroke="black" d="M5040.13,-88.76C4688.99,-87.42 3211.31,-79.25 2751.5,-36 2742.38,-35.14 2732.84,-33.95 2723.41,-32.59"/>
<polygon fill="black" stroke="black" points="2723.66,-29.09 2713.25,-31.06 2722.62,-36.01 2723.66,-29.09"/>
</g>
<!-- SPDXRef&#45;pip&#45;icecream -->
<g id="node17" class="node">
<title>SPDXRef&#45;pip&#45;icecream</title>
<ellipse fill="none" stroke="lightskyblue" cx="2863.5" cy="-18" rx="103" ry="18"/>
<text text-anchor="middle" x="2863.5" y="-14.3" font-family="Times,serif" font-size="14.00">SPDXRef&#45;pip&#45;icecream</text>
</g>
<!-- SPDXRef&#45;com.github.rikosintie&#45;Discovery_DEPENDS_ON&#45;&gt;SPDXRef&#45;pip&#45;icecream -->
<g id="edge15" class="edge">
<title>SPDXRef&#45;com.github.rikosintie&#45;Discovery_DEPENDS_ON&#45;&gt;SPDXRef&#45;pip&#45;icecream</title>
<path fill="none" stroke="black" d="M5040.24,-88.41C4710.2,-85.62 3388.98,-72.36 2975.5,-36 2965.33,-35.11 2954.68,-33.88 2944.16,-32.48"/>
<polygon fill="black" stroke="black" points="2944.52,-29 2934.14,-31.1 2943.57,-35.93 2944.52,-29"/>
</g>
<!-- SPDXRef&#45;pip&#45;idna -->
<g id="node18" class="node">
<title>SPDXRef&#45;pip&#45;idna</title>
<ellipse fill="none" stroke="lightskyblue" cx="3070.5" cy="-18" rx="86" ry="18"/>
<text text-anchor="middle" x="3070.5" y="-14.3" font-family="Times,serif" font-size="14.00">SPDXRef&#45;pip&#45;idna</text>
</g>
<!-- SPDXRef&#45;com.github.rikosintie&#45;Discovery_DEPENDS_ON&#45;&gt;SPDXRef&#45;pip&#45;idna -->
<g id="edge16" class="edge">
<title>SPDXRef&#45;com.github.rikosintie&#45;Discovery_DEPENDS_ON&#45;&gt;SPDXRef&#45;pip&#45;idna</title>
<path fill="none" stroke="black" d="M5040.19,-88.46C4728.58,-86.01 3539.04,-74.28 3165.5,-36 3157.17,-35.15 3148.48,-33.98 3139.88,-32.65"/>
<polygon fill="black" stroke="black" points="3140.28,-29.17 3129.85,-31.03 3139.17,-36.08 3140.28,-29.17"/>
</g>
<!-- SPDXRef&#45;pip&#45;invoke -->
<g id="node19" class="node">
<title>SPDXRef&#45;pip&#45;invoke</title>
<ellipse fill="none" stroke="lightskyblue" cx="3271.5" cy="-18" rx="96.5" ry="18"/>
<text text-anchor="middle" x="3271.5" y="-14.3" font-family="Times,serif" font-size="14.00">SPDXRef&#45;pip&#45;invoke</text>
</g>
<!-- SPDXRef&#45;com.github.rikosintie&#45;Discovery_DEPENDS_ON&#45;&gt;SPDXRef&#45;pip&#45;invoke -->
<g id="edge17" class="edge">
<title>SPDXRef&#45;com.github.rikosintie&#45;Discovery_DEPENDS_ON&#45;&gt;SPDXRef&#45;pip&#45;invoke</title>
<path fill="none" stroke="black" d="M5040.19,-87.99C4750.47,-83.92 3707.51,-67.36 3377.5,-36 3368.07,-35.1 3358.2,-33.89 3348.44,-32.53"/>
<polygon fill="black" stroke="black" points="3348.74,-29.03 3338.34,-31.06 3347.73,-35.96 3348.74,-29.03"/>
</g>
<!-- SPDXRef&#45;pip&#45;librt -->
<g id="node20" class="node">
<title>SPDXRef&#45;pip&#45;librt</title>
<ellipse fill="none" stroke="lightskyblue" cx="3471.5" cy="-18" rx="85" ry="18"/>
<text text-anchor="middle" x="3471.5" y="-14.3" font-family="Times,serif" font-size="14.00">SPDXRef&#45;pip&#45;librt</text>
</g>
<!-- SPDXRef&#45;com.github.rikosintie&#45;Discovery_DEPENDS_ON&#45;&gt;SPDXRef&#45;pip&#45;librt -->
<g id="edge18" class="edge">
<title>SPDXRef&#45;com.github.rikosintie&#45;Discovery_DEPENDS_ON&#45;&gt;SPDXRef&#45;pip&#45;librt</title>
<path fill="none" stroke="black" d="M5040.17,-87.87C4770.87,-83.6 3856.49,-67.12 3565.5,-36 3557.41,-35.13 3548.97,-33.98 3540.61,-32.67"/>
<polygon fill="black" stroke="black" points="3540.92,-29.17 3530.48,-31.01 3539.78,-36.08 3540.92,-29.17"/>
</g>
<!-- SPDXRef&#45;pip&#45;manuf2 -->
<g id="node21" class="node">
<title>SPDXRef&#45;pip&#45;manuf2</title>
<ellipse fill="none" stroke="lightskyblue" cx="3674.5" cy="-18" rx="99.5" ry="18"/>
<text text-anchor="middle" x="3674.5" y="-14.3" font-family="Times,serif" font-size="14.00">SPDXRef&#45;pip&#45;manuf2</text>
</g>
<!-- SPDXRef&#45;com.github.rikosintie&#45;Discovery_DEPENDS_ON&#45;&gt;SPDXRef&#45;pip&#45;manuf2 -->
<g id="edge19" class="edge">
<title>SPDXRef&#45;com.github.rikosintie&#45;Discovery_DEPENDS_ON&#45;&gt;SPDXRef&#45;pip&#45;manuf2</title>
<path fill="none" stroke="black" d="M5039.82,-89.03C4836.22,-88.45 4260.02,-82.48 3783.5,-36 3773.78,-35.05 3763.6,-33.81 3753.54,-32.42"/>
<polygon fill="black" stroke="black" points="3753.94,-28.94 3743.54,-30.99 3752.95,-35.87 3753.94,-28.94"/>
</g>
<!-- SPDXRef&#45;pip&#45;markdown&#45;it&#45;py -->
<g id="node22" class="node">
<title>SPDXRef&#45;pip&#45;markdown&#45;it&#45;py</title>
<ellipse fill="none" stroke="lightskyblue" cx="3925.5" cy="-18" rx="133" ry="18"/>
<text text-anchor="middle" x="3925.5" y="-14.3" font-family="Times,serif" font-size="14.00">SPDXRef&#45;pip&#45;markdown&#45;it&#45;py</text>
</g>
<!-- SPDXRef&#45;com.github.rikosintie&#45;Discovery_DEPENDS_ON&#45;&gt;SPDXRef&#45;pip&#45;markdown&#45;it&#45;py -->
<g id="edge20" class="edge">
<title>SPDXRef&#45;com.github.rikosintie&#45;Discovery_DEPENDS_ON&#45;&gt;SPDXRef&#45;pip&#45;markdown&#45;it&#45;py</title>
<path fill="none" stroke="black" d="M5041.05,-86.99C4869.25,-81.97 4431.9,-66.99 4067.5,-36 4054.69,-34.91 4041.24,-33.57 4027.95,-32.11"/>
<polygon fill="black" stroke="black" points="4028.16,-28.61 4017.83,-30.98 4027.38,-35.57 4028.16,-28.61"/>
</g>
<!-- SPDXRef&#45;pip&#45;mdurl -->
<g id="node23" class="node">
<title>SPDXRef&#45;pip&#45;mdurl</title>
<ellipse fill="none" stroke="lightskyblue" cx="4169.5" cy="-18" rx="93" ry="18"/>
<text text-anchor="middle" x="4169.5" y="-14.3" font-family="Times,serif" font-size="14.00">SPDXRef&#45;pip&#45;mdurl</text>
</g>
<!-- SPDXRef&#45;com.github.rikosintie&#45;Discovery_DEPENDS_ON&#45;&gt;SPDXRef&#45;pip&#45;mdurl -->
<g id="edge21" class="edge">
<title>SPDXRef&#45;com.github.rikosintie&#45;Discovery_DEPENDS_ON&#45;&gt;SPDXRef&#45;pip&#45;mdurl</title>
<path fill="none" stroke="black" d="M5040.95,-86.93C4893.42,-82.26 4553.97,-68.66 4270.5,-36 4261.97,-35.02 4253.05,-33.8 4244.21,-32.47"/>
<polygon fill="black" stroke="black" points="4244.7,-29 4234.28,-30.93 4243.63,-35.92 4244.7,-29"/>
</g>
<!-- SPDXRef&#45;pip&#45;mypy -->
<g id="node24" class="node">
<title>SPDXRef&#45;pip&#45;mypy</title>
<ellipse fill="none" stroke="lightskyblue" cx="4372.5" cy="-18" rx="92.5" ry="18"/>
<text text-anchor="middle" x="4372.5" y="-14.3" font-family="Times,serif" font-size="14.00">SPDXRef&#45;pip&#45;mypy</text>
</g>
<!-- SPDXRef&#45;com.github.rikosintie&#45;Discovery_DEPENDS_ON&#45;&gt;SPDXRef&#45;pip&#45;mypy -->
<g id="edge22" class="edge">
<title>SPDXRef&#45;com.github.rikosintie&#45;Discovery_DEPENDS_ON&#45;&gt;SPDXRef&#45;pip&#45;mypy</title>
<path fill="none" stroke="black" d="M5042.6,-84.99C4923.31,-77.98 4679.07,-61.74 4473.5,-36 4465.19,-34.96 4456.53,-33.73 4447.91,-32.41"/>
<polygon fill="black" stroke="black" points="4448.27,-28.92 4437.85,-30.83 4447.18,-35.84 4448.27,-28.92"/>
</g>
<!-- SPDXRef&#45;pip&#45;mypy&#45;extensions -->
<g id="node25" class="node">
<title>SPDXRef&#45;pip&#45;mypy&#45;extensions</title>
<ellipse fill="none" stroke="lightskyblue" cx="4619.5" cy="-18" rx="136.5" ry="18"/>
<text text-anchor="middle" x="4619.5" y="-14.3" font-family="Times,serif" font-size="14.00">SPDXRef&#45;pip&#45;mypy&#45;extensions</text>
</g>
<!-- SPDXRef&#45;com.github.rikosintie&#45;Discovery_DEPENDS_ON&#45;&gt;SPDXRef&#45;pip&#45;mypy&#45;extensions -->
<g id="edge23" class="edge">
<title>SPDXRef&#45;com.github.rikosintie&#45;Discovery_DEPENDS_ON&#45;&gt;SPDXRef&#45;pip&#45;mypy&#45;extensions</title>
<path fill="none" stroke="black" d="M5052.43,-80.1C4968.3,-68.23 4818.44,-47.08 4719,-33.04"/>
<polygon fill="black" stroke="black" points="4719.33,-29.55 4708.94,-31.62 4718.35,-36.49 4719.33,-29.55"/>
</g>
<!-- SPDXRef&#45;pip&#45;netmiko -->
<g id="node26" class="node">
<title>SPDXRef&#45;pip&#45;netmiko</title>
<ellipse fill="none" stroke="lightskyblue" cx="4875.5" cy="-18" rx="101.5" ry="18"/>
<text text-anchor="middle" x="4875.5" y="-14.3" font-family="Times,serif" font-size="14.00">SPDXRef&#45;pip&#45;netmiko</text>
</g>
<!-- SPDXRef&#45;com.github.rikosintie&#45;Discovery_DEPENDS_ON&#45;&gt;SPDXRef&#45;pip&#45;netmiko -->
<g id="edge24" class="edge">
<title>SPDXRef&#45;com.github.rikosintie&#45;Discovery_DEPENDS_ON&#45;&gt;SPDXRef&#45;pip&#45;netmiko</title>
<path fill="none" stroke="black" d="M5069.79,-75.67C5031.77,-64.58 4977.34,-48.7 4935.75,-36.57"/>
<polygon fill="black" stroke="black" points="4936.6,-33.17 4926.02,-33.73 4934.64,-39.89 4936.6,-33.17"/>
</g>
<!-- SPDXRef&#45;pip&#45;ntc&#45;templates -->
<g id="node27" class="node">
<title>SPDXRef&#45;pip&#45;ntc&#45;templates</title>
<ellipse fill="none" stroke="lightskyblue" cx="5115.5" cy="-18" rx="120.5" ry="18"/>
<text text-anchor="middle" x="5115.5" y="-14.3" font-family="Times,serif" font-size="14.00">SPDXRef&#45;pip&#45;ntc&#45;templates</text>
</g>
<!-- SPDXRef&#45;com.github.rikosintie&#45;Discovery_DEPENDS_ON&#45;&gt;SPDXRef&#45;pip&#45;ntc&#45;templates -->
<g id="edge25" class="edge">
<title>SPDXRef&#45;com.github.rikosintie&#45;Discovery_DEPENDS_ON&#45;&gt;SPDXRef&#45;pip&#45;ntc&#45;templates</title>
<path fill="none" stroke="black" d="M5115.5,-71.7C5115.5,-63.98 5115.5,-54.71 5115.5,-46.11"/>
<polygon fill="black" stroke="black" points="5119,-46.1 5115.5,-36.1 5112,-46.1 5119,-46.1"/>
</g>
<!-- SPDXRef&#45;pip&#45;numpy -->
<g id="node28" class="node">
<title>SPDXRef&#45;pip&#45;numpy</title>
<ellipse fill="none" stroke="lightskyblue" cx="5351.5" cy="-18" rx="97.5" ry="18"/>
<text text-anchor="middle" x="5351.5" y="-14.3" font-family="Times,serif" font-size="14.00">SPDXRef&#45;pip&#45;numpy</text>
</g>
<!-- SPDXRef&#45;com.github.rikosintie&#45;Discovery_DEPENDS_ON&#45;&gt;SPDXRef&#45;pip&#45;numpy -->
<g id="edge26" class="edge">
<title>SPDXRef&#45;com.github.rikosintie&#45;Discovery_DEPENDS_ON&#45;&gt;SPDXRef&#45;pip&#45;numpy</title>
<path fill="none" stroke="black" d="M5160.72,-75.59C5198.19,-64.47 5251.71,-48.6 5292.54,-36.49"/>
<polygon fill="black" stroke="black" points="5293.77,-39.78 5302.36,-33.58 5291.78,-33.06 5293.77,-39.78"/>
</g>
<!-- SPDXRef&#45;pip&#45;openpyxl -->
<g id="node29" class="node">
<title>SPDXRef&#45;pip&#45;openpyxl</title>
<ellipse fill="none" stroke="lightskyblue" cx="5573.5" cy="-18" rx="106.5" ry="18"/>
<text text-anchor="middle" x="5573.5" y="-14.3" font-family="Times,serif" font-size="14.00">SPDXRef&#45;pip&#45;openpyxl</text>
</g>
<!-- SPDXRef&#45;com.github.rikosintie&#45;Discovery_DEPENDS_ON&#45;&gt;SPDXRef&#45;pip&#45;openpyxl -->
<g id="edge27" class="edge">
<title>SPDXRef&#45;com.github.rikosintie&#45;Discovery_DEPENDS_ON&#45;&gt;SPDXRef&#45;pip&#45;openpyxl</title>
<path fill="none" stroke="black" d="M5177.27,-79.56C5257.29,-67.33 5397.2,-45.95 5487.55,-32.14"/>
<polygon fill="black" stroke="black" points="5488.14,-35.59 5497.5,-30.62 5487.09,-28.67 5488.14,-35.59"/>
</g>
<!-- SPDXRef&#45;pip&#45;pandas -->
<g id="node30" class="node">
<title>SPDXRef&#45;pip&#45;pandas</title>
<ellipse fill="none" stroke="lightskyblue" cx="5794.5" cy="-18" rx="96.5" ry="18"/>
<text text-anchor="middle" x="5794.5" y="-14.3" font-family="Times,serif" font-size="14.00">SPDXRef&#45;pip&#45;pandas</text>
</g>
<!-- SPDXRef&#45;com.github.rikosintie&#45;Discovery_DEPENDS_ON&#45;&gt;SPDXRef&#45;pip&#45;pandas -->
<g id="edge28" class="edge">
<title>SPDXRef&#45;com.github.rikosintie&#45;Discovery_DEPENDS_ON&#45;&gt;SPDXRef&#45;pip&#45;pandas</title>
<path fill="none" stroke="black" d="M5186.81,-83.99C5295.51,-76 5509.06,-58.91 5689.5,-36 5698.15,-34.9 5707.18,-33.63 5716.16,-32.29"/>
<polygon fill="black" stroke="black" points="5716.9,-35.71 5726.26,-30.74 5715.84,-28.79 5716.9,-35.71"/>
</g>
<!-- SPDXRef&#45;pip&#45;paramiko -->
<g id="node31" class="node">
<title>SPDXRef&#45;pip&#45;paramiko</title>
<ellipse fill="none" stroke="lightskyblue" cx="6015.5" cy="-18" rx="106" ry="18"/>
<text text-anchor="middle" x="6015.5" y="-14.3" font-family="Times,serif" font-size="14.00">SPDXRef&#45;pip&#45;paramiko</text>
</g>
<!-- SPDXRef&#45;com.github.rikosintie&#45;Discovery_DEPENDS_ON&#45;&gt;SPDXRef&#45;pip&#45;paramiko -->
<g id="edge29" class="edge">
<title>SPDXRef&#45;com.github.rikosintie&#45;Discovery_DEPENDS_ON&#45;&gt;SPDXRef&#45;pip&#45;paramiko</title>
<path fill="none" stroke="black" d="M5189.26,-85.97C5328.56,-79.83 5639.74,-64.03 5900.5,-36 5910.36,-34.94 5920.67,-33.66 5930.89,-32.29"/>
<polygon fill="black" stroke="black" points="5931.64,-35.72 5941.07,-30.88 5930.68,-28.78 5931.64,-35.72"/>
</g>
<!-- SPDXRef&#45;pip&#45;pathspec -->
<g id="node32" class="node">
<title>SPDXRef&#45;pip&#45;pathspec</title>
<ellipse fill="none" stroke="lightskyblue" cx="6242.5" cy="-18" rx="103" ry="18"/>
<text text-anchor="middle" x="6242.5" y="-14.3" font-family="Times,serif" font-size="14.00">SPDXRef&#45;pip&#45;pathspec</text>
</g>
<!-- SPDXRef&#45;com.github.rikosintie&#45;Discovery_DEPENDS_ON&#45;&gt;SPDXRef&#45;pip&#45;pathspec -->
<g id="edge30" class="edge">
<title>SPDXRef&#45;com.github.rikosintie&#45;Discovery_DEPENDS_ON&#45;&gt;SPDXRef&#45;pip&#45;pathspec</title>
<path fill="none" stroke="black" d="M5190.5,-87.61C5358.97,-83.93 5780.06,-71.66 6130.5,-36 6140.26,-35.01 6150.47,-33.76 6160.58,-32.38"/>
<polygon fill="black" stroke="black" points="6161.22,-35.83 6170.64,-30.98 6160.25,-28.9 6161.22,-35.83"/>
</g>
<!-- SPDXRef&#45;pip&#45;prettytable -->
<g id="node33" class="node">
<title>SPDXRef&#45;pip&#45;prettytable</title>
<ellipse fill="none" stroke="lightskyblue" cx="6473.5" cy="-18" rx="110" ry="18"/>
<text text-anchor="middle" x="6473.5" y="-14.3" font-family="Times,serif" font-size="14.00">SPDXRef&#45;pip&#45;prettytable</text>
</g>
<!-- SPDXRef&#45;com.github.rikosintie&#45;Discovery_DEPENDS_ON&#45;&gt;SPDXRef&#45;pip&#45;prettytable -->
<g id="edge31" class="edge">
<title>SPDXRef&#45;com.github.rikosintie&#45;Discovery_DEPENDS_ON&#45;&gt;SPDXRef&#45;pip&#45;prettytable</title>
<path fill="none" stroke="black" d="M5190.75,-88.38C5384.24,-86.21 5914.74,-76.72 6354.5,-36 6365.16,-35.01 6376.33,-33.74 6387.37,-32.33"/>
<polygon fill="black" stroke="black" points="6387.99,-35.78 6397.45,-31.01 6387.08,-28.84 6387.99,-35.78"/>
</g>
<!-- SPDXRef&#45;pip&#45;pycparser -->
<g id="node34" class="node">
<title>SPDXRef&#45;pip&#45;pycparser</title>
<ellipse fill="none" stroke="lightskyblue" cx="6708.5" cy="-18" rx="106.5" ry="18"/>
<text text-anchor="middle" x="6708.5" y="-14.3" font-family="Times,serif" font-size="14.00">SPDXRef&#45;pip&#45;pycparser</text>
</g>
<!-- SPDXRef&#45;com.github.rikosintie&#45;Discovery_DEPENDS_ON&#45;&gt;SPDXRef&#45;pip&#45;pycparser -->
<g id="edge32" class="edge">
<title>SPDXRef&#45;com.github.rikosintie&#45;Discovery_DEPENDS_ON&#45;&gt;SPDXRef&#45;pip&#45;pycparser</title>
<path fill="none" stroke="black" d="M5191,-89.21C5408.85,-89.18 6057.16,-84.68 6592.5,-36 6602.87,-35.06 6613.73,-33.81 6624.46,-32.42"/>
<polygon fill="black" stroke="black" points="6625.25,-35.85 6634.7,-31.05 6624.32,-28.91 6625.25,-35.85"/>
</g>
<!-- SPDXRef&#45;pip&#45;Pygments -->
<g id="node35" class="node">
<title>SPDXRef&#45;pip&#45;Pygments</title>
<ellipse fill="none" stroke="lightskyblue" cx="6941.5" cy="-18" rx="108" ry="18"/>
<text text-anchor="middle" x="6941.5" y="-14.3" font-family="Times,serif" font-size="14.00">SPDXRef&#45;pip&#45;Pygments</text>
</g>
<!-- SPDXRef&#45;com.github.rikosintie&#45;Discovery_DEPENDS_ON&#45;&gt;SPDXRef&#45;pip&#45;Pygments -->
<g id="edge33" class="edge">
<title>SPDXRef&#45;com.github.rikosintie&#45;Discovery_DEPENDS_ON&#45;&gt;SPDXRef&#45;pip&#45;Pygments</title>
<path fill="none" stroke="black" d="M5190.51,-87.81C5476.71,-83.07 6500.15,-64.5 6824.5,-36 6835.07,-35.07 6846.14,-33.83 6857.07,-32.43"/>
<polygon fill="black" stroke="black" points="6857.61,-35.89 6867.06,-31.1 6856.69,-28.95 6857.61,-35.89"/>
</g>
<!-- SPDXRef&#45;pip&#45;PyNaCl -->
<g id="node36" class="node">
<title>SPDXRef&#45;pip&#45;PyNaCl</title>
<ellipse fill="none" stroke="lightskyblue" cx="7168.5" cy="-18" rx="100.5" ry="18"/>
<text text-anchor="middle" x="7168.5" y="-14.3" font-family="Times,serif" font-size="14.00">SPDXRef&#45;pip&#45;PyNaCl</text>
</g>
<!-- SPDXRef&#45;com.github.rikosintie&#45;Discovery_DEPENDS_ON&#45;&gt;SPDXRef&#45;pip&#45;PyNaCl -->
<g id="edge34" class="edge">
<title>SPDXRef&#45;com.github.rikosintie&#45;Discovery_DEPENDS_ON&#45;&gt;SPDXRef&#45;pip&#45;PyNaCl</title>
<path fill="none" stroke="black" d="M5190.78,-88.22C5501.59,-84.79 6685.98,-69.73 7058.5,-36 7068.39,-35.1 7078.74,-33.88 7088.96,-32.5"/>
<polygon fill="black" stroke="black" points="7089.71,-35.93 7099.13,-31.08 7088.74,-29 7089.71,-35.93"/>
</g>
<!-- SPDXRef&#45;pip&#45;pyserial -->
<g id="node37" class="node">
<title>SPDXRef&#45;pip&#45;pyserial</title>
<ellipse fill="none" stroke="lightskyblue" cx="7386.5" cy="-18" rx="99.5" ry="18"/>
<text text-anchor="middle" x="7386.5" y="-14.3" font-family="Times,serif" font-size="14.00">SPDXRef&#45;pip&#45;pyserial</text>
</g>
<!-- SPDXRef&#45;com.github.rikosintie&#45;Discovery_DEPENDS_ON&#45;&gt;SPDXRef&#45;pip&#45;pyserial -->
<g id="edge35" class="edge">
<title>SPDXRef&#45;com.github.rikosintie&#45;Discovery_DEPENDS_ON&#45;&gt;SPDXRef&#45;pip&#45;pyserial</title>
<path fill="none" stroke="black" d="M5190.74,-88.49C5522.94,-86.02 6860.32,-73.87 7278.5,-36 7288.14,-35.13 7298.23,-33.93 7308.2,-32.57"/>
<polygon fill="black" stroke="black" points="7308.7,-36.03 7318.11,-31.16 7307.72,-29.1 7308.7,-36.03"/>
</g>
<!-- SPDXRef&#45;pip&#45;python&#45;dateutil -->
<g id="node38" class="node">
<title>SPDXRef&#45;pip&#45;python&#45;dateutil</title>
<ellipse fill="none" stroke="lightskyblue" cx="7633.5" cy="-18" rx="129" ry="18"/>
<text text-anchor="middle" x="7633.5" y="-14.3" font-family="Times,serif" font-size="14.00">SPDXRef&#45;pip&#45;python&#45;dateutil</text>
</g>
<!-- SPDXRef&#45;com.github.rikosintie&#45;Discovery_DEPENDS_ON&#45;&gt;SPDXRef&#45;pip&#45;python&#45;dateutil -->
<g id="edge36" class="edge">
<title>SPDXRef&#45;com.github.rikosintie&#45;Discovery_DEPENDS_ON&#45;&gt;SPDXRef&#45;pip&#45;python&#45;dateutil</title>
<path fill="none" stroke="black" d="M5190.76,-88.34C5543.04,-85.11 7031.5,-69.66 7495.5,-36 7508.35,-35.07 7521.85,-33.78 7535.16,-32.34"/>
<polygon fill="black" stroke="black" points="7535.74,-35.79 7545.29,-31.2 7534.96,-28.84 7535.74,-35.79"/>
</g>
<!-- SPDXRef&#45;pip&#45;PyYAML -->
<g id="node39" class="node">
<title>SPDXRef&#45;pip&#45;PyYAML</title>
<ellipse fill="none" stroke="lightskyblue" cx="7888.5" cy="-18" rx="108" ry="18"/>
<text text-anchor="middle" x="7888.5" y="-14.3" font-family="Times,serif" font-size="14.00">SPDXRef&#45;pip&#45;PyYAML</text>
</g>
<!-- SPDXRef&#45;com.github.rikosintie&#45;Discovery_DEPENDS_ON&#45;&gt;SPDXRef&#45;pip&#45;PyYAML -->
<g id="edge37" class="edge">
<title>SPDXRef&#45;com.github.rikosintie&#45;Discovery_DEPENDS_ON&#45;&gt;SPDXRef&#45;pip&#45;PyYAML</title>
<path fill="none" stroke="black" d="M5190.88,-88.76C5567.75,-87.39 7250.23,-78.9 7771.5,-36 7782.23,-35.12 7793.47,-33.88 7804.57,-32.48"/>
<polygon fill="black" stroke="black" points="7805.24,-35.92 7814.7,-31.14 7804.33,-28.98 7805.24,-35.92"/>
</g>
<!-- SPDXRef&#45;pip&#45;requests -->
<g id="node40" class="node">
<title>SPDXRef&#45;pip&#45;requests</title>
<ellipse fill="none" stroke="lightskyblue" cx="8115.5" cy="-18" rx="100.5" ry="18"/>
<text text-anchor="middle" x="8115.5" y="-14.3" font-family="Times,serif" font-size="14.00">SPDXRef&#45;pip&#45;requests</text>
</g>
<!-- SPDXRef&#45;com.github.rikosintie&#45;Discovery_DEPENDS_ON&#45;&gt;SPDXRef&#45;pip&#45;requests -->
<g id="edge38" class="edge">
<title>SPDXRef&#45;com.github.rikosintie&#45;Discovery_DEPENDS_ON&#45;&gt;SPDXRef&#45;pip&#45;requests</title>
<path fill="none" stroke="black" d="M5191.2,-89C5588.43,-88.77 7435.53,-85.04 8005.5,-36 8015.57,-35.13 8026.11,-33.91 8036.52,-32.52"/>
<polygon fill="black" stroke="black" points="8037.01,-35.98 8046.43,-31.13 8036.04,-29.05 8037.01,-35.98"/>
</g>
<!-- SPDXRef&#45;pip&#45;rich -->
<g id="node41" class="node">
<title>SPDXRef&#45;pip&#45;rich</title>
<ellipse fill="none" stroke="lightskyblue" cx="8318.5" cy="-18" rx="84" ry="18"/>
<text text-anchor="middle" x="8318.5" y="-14.3" font-family="Times,serif" font-size="14.00">SPDXRef&#45;pip&#45;rich</text>
</g>
<!-- SPDXRef&#45;com.github.rikosintie&#45;Discovery_DEPENDS_ON&#45;&gt;SPDXRef&#45;pip&#45;rich -->
<g id="edge39" class="edge">
<title>SPDXRef&#45;com.github.rikosintie&#45;Discovery_DEPENDS_ON&#45;&gt;SPDXRef&#45;pip&#45;rich</title>
<path fill="none" stroke="black" d="M5190.89,-88.46C5636.36,-85.14 7915.42,-66.77 8225.5,-36 8233.72,-35.18 8242.3,-34.03 8250.78,-32.71"/>
<polygon fill="black" stroke="black" points="8251.36,-36.16 8260.66,-31.08 8250.23,-29.25 8251.36,-36.16"/>
</g>
<!-- SPDXRef&#45;pip&#45;ruamel.yaml -->
<g id="node42" class="node">
<title>SPDXRef&#45;pip&#45;ruamel.yaml</title>
<ellipse fill="none" stroke="lightskyblue" cx="8538.5" cy="-18" rx="118" ry="18"/>
<text text-anchor="middle" x="8538.5" y="-14.3" font-family="Times,serif" font-size="14.00">SPDXRef&#45;pip&#45;ruamel.yaml</text>
</g>
<!-- SPDXRef&#45;com.github.rikosintie&#45;Discovery_DEPENDS_ON&#45;&gt;SPDXRef&#45;pip&#45;ruamel.yaml -->
<g id="edge40" class="edge">
<title>SPDXRef&#45;com.github.rikosintie&#45;Discovery_DEPENDS_ON&#45;&gt;SPDXRef&#45;pip&#45;ruamel.yaml</title>
<path fill="none" stroke="black" d="M5190.98,-88.99C5620.01,-88.74 7755.55,-85.01 8411.5,-36 8423.28,-35.12 8435.65,-33.87 8447.84,-32.45"/>
<polygon fill="black" stroke="black" points="8448.52,-35.89 8458.03,-31.22 8447.68,-28.94 8448.52,-35.89"/>
</g>
<!-- SPDXRef&#45;pip&#45;scp -->
<g id="node43" class="node">
<title>SPDXRef&#45;pip&#45;scp</title>
<ellipse fill="none" stroke="lightskyblue" cx="8756.5" cy="-18" rx="82" ry="18"/>
<text text-anchor="middle" x="8756.5" y="-14.3" font-family="Times,serif" font-size="14.00">SPDXRef&#45;pip&#45;scp</text>
</g>
<!-- SPDXRef&#45;com.github.rikosintie&#45;Discovery_DEPENDS_ON&#45;&gt;SPDXRef&#45;pip&#45;scp -->
<g id="edge41" class="edge">
<title>SPDXRef&#45;com.github.rikosintie&#45;Discovery_DEPENDS_ON&#45;&gt;SPDXRef&#45;pip&#45;scp</title>
<path fill="none" stroke="black" d="M5191.13,-88.64C5673.31,-86.26 8309.1,-71.69 8665.5,-36 8673.46,-35.2 8681.76,-34.07 8689.97,-32.77"/>
<polygon fill="black" stroke="black" points="8690.63,-36.21 8699.92,-31.11 8689.48,-29.31 8690.63,-36.21"/>
</g>
<!-- SPDXRef&#45;pip&#45;setuptools -->
<g id="node44" class="node">
<title>SPDXRef&#45;pip&#45;setuptools</title>
<ellipse fill="none" stroke="lightskyblue" cx="8965.5" cy="-18" rx="108.5" ry="18"/>
<text text-anchor="middle" x="8965.5" y="-14.3" font-family="Times,serif" font-size="14.00">SPDXRef&#45;pip&#45;setuptools</text>
</g>
<!-- SPDXRef&#45;com.github.rikosintie&#45;Discovery_DEPENDS_ON&#45;&gt;SPDXRef&#45;pip&#45;setuptools -->
<g id="edge42" class="edge">
<title>SPDXRef&#45;com.github.rikosintie&#45;Discovery_DEPENDS_ON&#45;&gt;SPDXRef&#45;pip&#45;setuptools</title>
<path fill="none" stroke="black" d="M5190.96,-89.26C5652.53,-90.62 8099.78,-94.92 8847.5,-36 8858.51,-35.13 8870.06,-33.89 8881.44,-32.46"/>
<polygon fill="black" stroke="black" points="8881.92,-35.93 8891.39,-31.16 8881.02,-28.99 8881.92,-35.93"/>
</g>
<!-- SPDXRef&#45;pip&#45;six -->
<g id="node45" class="node">
<title>SPDXRef&#45;pip&#45;six</title>
<ellipse fill="none" stroke="lightskyblue" cx="9172.5" cy="-18" rx="80.5" ry="18"/>
<text text-anchor="middle" x="9172.5" y="-14.3" font-family="Times,serif" font-size="14.00">SPDXRef&#45;pip&#45;six</text>
</g>
<!-- SPDXRef&#45;com.github.rikosintie&#45;Discovery_DEPENDS_ON&#45;&gt;SPDXRef&#45;pip&#45;six -->
<g id="edge43" class="edge">
<title>SPDXRef&#45;com.github.rikosintie&#45;Discovery_DEPENDS_ON&#45;&gt;SPDXRef&#45;pip&#45;six</title>
<path fill="none" stroke="black" d="M5191.14,-88.79C5705.65,-87.25 8682.95,-76.61 9083.5,-36 9091.2,-35.22 9099.23,-34.11 9107.18,-32.83"/>
<polygon fill="black" stroke="black" points="9107.9,-36.26 9117.17,-31.12 9106.73,-29.35 9107.9,-36.26"/>
</g>
<!-- SPDXRef&#45;pip&#45;textfsm -->
<g id="node46" class="node">
<title>SPDXRef&#45;pip&#45;textfsm</title>
<ellipse fill="none" stroke="lightskyblue" cx="9369.5" cy="-18" rx="98" ry="18"/>
<text text-anchor="middle" x="9369.5" y="-14.3" font-family="Times,serif" font-size="14.00">SPDXRef&#45;pip&#45;textfsm</text>
</g>
<!-- SPDXRef&#45;com.github.rikosintie&#45;Discovery_DEPENDS_ON&#45;&gt;SPDXRef&#45;pip&#45;textfsm -->
<g id="edge44" class="edge">
<title>SPDXRef&#45;com.github.rikosintie&#45;Discovery_DEPENDS_ON&#45;&gt;SPDXRef&#45;pip&#45;textfsm</title>
<path fill="none" stroke="black" d="M5191.12,-88.69C5718.84,-86.47 8842.36,-71.87 9262.5,-36 9272.2,-35.17 9282.35,-33.98 9292.37,-32.62"/>
<polygon fill="black" stroke="black" points="9292.92,-36.07 9302.33,-31.19 9291.94,-29.14 9292.92,-36.07"/>
</g>
<!-- SPDXRef&#45;pip&#45;typing&#45;extensions -->
<g id="node47" class="node">
<title>SPDXRef&#45;pip&#45;typing&#45;extensions</title>
<ellipse fill="none" stroke="lightskyblue" cx="9624.5" cy="-18" rx="139" ry="18"/>
<text text-anchor="middle" x="9624.5" y="-14.3" font-family="Times,serif" font-size="14.00">SPDXRef&#45;pip&#45;typing&#45;extensions</text>
</g>
<!-- SPDXRef&#45;com.github.rikosintie&#45;Discovery_DEPENDS_ON&#45;&gt;SPDXRef&#45;pip&#45;typing&#45;extensions -->
<g id="edge45" class="edge">
<title>SPDXRef&#45;com.github.rikosintie&#45;Discovery_DEPENDS_ON&#45;&gt;SPDXRef&#45;pip&#45;typing&#45;extensions</title>
<path fill="none" stroke="black" d="M5191.01,-89.14C5696.42,-89.92 8594.74,-91.85 9476.5,-36 9490.66,-35.1 9505.54,-33.81 9520.19,-32.33"/>
<polygon fill="black" stroke="black" points="9520.7,-35.8 9530.28,-31.28 9519.97,-28.84 9520.7,-35.8"/>
</g>
<!-- SPDXRef&#45;pip&#45;urllib3 -->
<g id="node48" class="node">
<title>SPDXRef&#45;pip&#45;urllib3</title>
<ellipse fill="none" stroke="lightskyblue" cx="9877.5" cy="-18" rx="95.5" ry="18"/>
<text text-anchor="middle" x="9877.5" y="-14.3" font-family="Times,serif" font-size="14.00">SPDXRef&#45;pip&#45;urllib3</text>
</g>
<!-- SPDXRef&#45;com.github.rikosintie&#45;Discovery_DEPENDS_ON&#45;&gt;SPDXRef&#45;pip&#45;urllib3 -->
<g id="edge46" class="edge">
<title>SPDXRef&#45;com.github.rikosintie&#45;Discovery_DEPENDS_ON&#45;&gt;SPDXRef&#45;pip&#45;urllib3</title>
<path fill="none" stroke="black" d="M5191.18,-88.82C5755.53,-87.4 9298.22,-76.86 9772.5,-36 9781.99,-35.18 9791.92,-34 9801.72,-32.64"/>
<polygon fill="black" stroke="black" points="9802.48,-36.07 9811.87,-31.17 9801.47,-29.14 9802.48,-36.07"/>
</g>
<!-- SPDXRef&#45;pip&#45;wcwidth -->
<g id="node49" class="node">
<title>SPDXRef&#45;pip&#45;wcwidth</title>
<ellipse fill="none" stroke="lightskyblue" cx="10094.5" cy="-18" rx="103" ry="18"/>
<text text-anchor="middle" x="10094.5" y="-14.3" font-family="Times,serif" font-size="14.00">SPDXRef&#45;pip&#45;wcwidth</text>
</g>
<!-- SPDXRef&#45;com.github.rikosintie&#45;Discovery_DEPENDS_ON&#45;&gt;SPDXRef&#45;pip&#45;wcwidth -->
<g id="edge47" class="edge">
<title>SPDXRef&#45;com.github.rikosintie&#45;Discovery_DEPENDS_ON&#45;&gt;SPDXRef&#45;pip&#45;wcwidth</title>
<path fill="none" stroke="black" d="M5190.88,-88.82C5768.62,-87.33 9485.57,-76.22 9982.5,-36 9992.75,-35.17 10003.49,-33.97 10014.08,-32.59"/>
<polygon fill="black" stroke="black" points="10014.74,-36.03 10024.18,-31.21 10013.79,-29.09 10014.74,-36.03"/>
</g>
</g>
</svg>
